# xmcd CD database file
#
# Track frame offsets:
#	150
#	1637
#	13339
#	24049
#	38257
#	50283
#	64717
#	82019
#	97968
#	110213
#	122940
#	133771
#	147701
#	164882
#	182250
#	191290
#	206027
#	217918
#
# Disc length: 3047 seconds
#
# Revision: 0
# Processed by: cddbd v1.4PL0 Copyright (c) Steve Scherf et al.
# Submitted via: CDex 1.50Beta7
#
DISCID=f30be512
DTITLE=Peace River - The Early Days
DYEAR=1900
DGENRE=Country
TTITLE0=Intro
TTITLE1=The Old 97
TTITLE2=Wonderin´
TTITLE3=Dirty Old Town
TTITLE4=Jena
TTITLE5=I Saw The Light
TTITLE6=Streets Of Laredo
TTITLE7=Jambalaya
TTITLE8=Transfusion Blues
TTITLE9=Cold Windy City Of Chicago
TTITLE10=Knoxville Girl
TTITLE11=The Sweetest Gift
TTITLE12=It´s Hello Blues And Down The Road I Go
TTITLE13=Will The Circle Be Unbroken
TTITLE14=Folsom Prison Blues
TTITLE15=Dixi Darlin´
TTITLE16=Mornin´ Dew
TTITLE17=I Walk The Line
EXTD=
EXTT0=
EXTT1=
EXTT2=
EXTT3=
EXTT4=
EXTT5=
EXTT6=
EXTT7=
EXTT8=
EXTT9=
EXTT10=
EXTT11=
EXTT12=
EXTT13=
EXTT14=
EXTT15=
EXTT16=
EXTT17=
PLAYORDER=
